<svg xmlns="http://www.w3.org/2000/svg" width="20.4" height="20.395"><path d="M10.205 4.968a5.229 5.229 0 1 0 5.229 5.229 5.221 5.221 0 0 0-5.229-5.229Zm0 8.629a3.4 3.4 0 1 1 3.4-3.4 3.406 3.406 0 0 1-3.4 3.4Zm6.663-8.843a1.22 1.22 0 1 1-1.22-1.22 1.217 1.217 0 0 1 1.216 1.22Zm3.46 1.238a6.036 6.036 0 0 0-1.647-4.273A6.075 6.075 0 0 0 14.405.071c-1.684-.1-6.731-.1-8.415 0a6.067 6.067 0 0 0-4.271 1.643A6.056 6.056 0 0 0 .071 5.988c-.1 1.684-.1 6.731 0 8.415a6.036 6.036 0 0 0 1.647 4.273 6.083 6.083 0 0 0 4.273 1.647c1.684.1 6.731.1 8.415 0a6.036 6.036 0 0 0 4.273-1.647 6.075 6.075 0 0 0 1.647-4.273c.1-1.684.1-6.726 0-8.41Zm-2.176 10.217a3.442 3.442 0 0 1-1.939 1.939c-1.343.532-4.528.41-6.012.41s-4.674.118-6.012-.41a3.442 3.442 0 0 1-1.939-1.939c-.532-1.343-.41-4.528-.41-6.012s-.118-4.674.41-6.012a3.442 3.442 0 0 1 1.94-1.938c1.343-.532 4.528-.41 6.012-.41s4.674-.118 6.012.41a3.442 3.442 0 0 1 1.939 1.939c.532 1.343.41 4.528.41 6.012s.122 4.673-.411 6.011Z" fill="#fff"/></svg>