<svg xmlns="http://www.w3.org/2000/svg" width="21.993" height="17.897"><path d="M21.994 2.121a9.122 9.122 0 0 1-2.591.713 4.528 4.528 0 0 0 1.985-2.5 8.966 8.966 0 0 1-2.866 1.1 4.511 4.511 0 0 0-7.807 3.085 4.418 4.418 0 0 0 .117 1.03 12.787 12.787 0 0 1-9.3-4.721 4.521 4.521 0 0 0 1.4 6.031 4.407 4.407 0 0 1-2.051-.564v.056a4.516 4.516 0 0 0 3.621 4.428 4.542 4.542 0 0 1-1.188.158 4.257 4.257 0 0 1-.848-.084 4.519 4.519 0 0 0 4.221 3.133 9.047 9.047 0 0 1-5.61 1.935A9.146 9.146 0 0 1 0 15.856 12.612 12.612 0 0 0 6.907 17.9a12.762 12.762 0 0 0 12.85-12.857c0-.2 0-.391-.014-.583a9.185 9.185 0 0 0 2.251-2.339Z" fill="#fff"/></svg>